<svg width="20" height="14" viewBox="0 0 20 14" fill="none" xmlns="http://www.w3.org/2000/svg">
<path d="M4.20361 3.50172H1.20361C0.653613 3.50172 0.203613 3.05172 0.203613 2.50172C0.203613 1.95172 0.653613 1.50172 1.20361 1.50172H4.20361C4.75361 1.50172 5.20361 1.95172 5.20361 2.50172C5.20361 3.05172 4.75361 3.50172 4.20361 3.50172ZM4.20361 6.50172H1.20361C0.653613 6.50172 0.203613 6.95172 0.203613 7.50172C0.203613 8.05172 0.653613 8.50172 1.20361 8.50172H4.20361C4.75361 8.50172 5.20361 8.05172 5.20361 7.50172C5.20361 6.95172 4.75361 6.50172 4.20361 6.50172ZM18.0836 12.7917L14.9636 9.67172C14.1036 10.2317 13.0736 10.5517 11.9636 10.4917C9.59361 10.3817 7.56361 8.53172 7.24361 6.18172C6.80361 2.83172 9.69361 0.0017232 13.0736 0.571723C15.0236 0.901723 16.6436 2.42172 17.0736 4.35172C17.4036 5.81172 17.0836 7.17172 16.3736 8.25172L19.5036 11.3817C19.8936 11.7717 19.8936 12.4017 19.5036 12.7917C19.1136 13.1817 18.4736 13.1817 18.0836 12.7917ZM15.2036 5.50172C15.2036 3.85172 13.8536 2.50172 12.2036 2.50172C10.5536 2.50172 9.20361 3.85172 9.20361 5.50172C9.20361 7.15172 10.5536 8.50172 12.2036 8.50172C13.8536 8.50172 15.2036 7.15172 15.2036 5.50172ZM1.20361 13.5017H9.20361C9.75361 13.5017 10.2036 13.0517 10.2036 12.5017C10.2036 11.9517 9.75361 11.5017 9.20361 11.5017H1.20361C0.653613 11.5017 0.203613 11.9517 0.203613 12.5017C0.203613 13.0517 0.653613 13.5017 1.20361 13.5017Z" fill="#424550"/>
</svg>
